<?xml version="1.0" encoding="utf-8"?>
<!-- Generator: Adobe Illustrator 22.1.0, SVG Export Plug-In . SVG Version: 6.00 Build 0)  -->
<svg version="1.1" xmlns="http://www.w3.org/2000/svg" xmlns:xlink="http://www.w3.org/1999/xlink" x="0px" y="0px"
	 viewBox="0 0 120 120" style="enable-background:new 0 0 120 120;" xml:space="preserve">
<style type="text/css">
	.st0{fill:#155671;}
	.st1{fill:#29ABE2;}
	.st2{fill:#1F80AA;}
	.st3{fill:#ED1E79;}
	.st4{fill:#B2165B;}
	.st5{fill:#F3BD1A;}
	.st6{fill:#FFFFFF;}
	.st7{fill:#0E1235;}
	.st8{fill:#8AC24D;}
	.st9{fill:#A3D165;}
	.st10{fill:#528918;}
	.st11{fill:#63A51E;}
	.st12{opacity:0.15;fill:#FFFFFF;enable-background:new    ;}
	.st13{fill:#406813;}
	.st14{display:none;}
	.st15{display:inline;fill:#424142;}
	.st16{fill:#5400B5;}
</style>
<g id="Layer_1">
	<polygon class="st0" points="40.9,4.2 42.3,8.7 43.2,7.5 	"/>
	<polygon class="st0" points="42.6,22.3 43.3,20.8 43.3,9.1 42.6,10.1 	"/>
	<path class="st1" d="M40.7,21.8c0.1,0.4,0.1,0.8,0.2,1.1l0.8,0l0-12.5l-4.6,0l0,12.5l1.4,0c0-0.1,0-0.2,0-0.2c0,0,0-0.3,0.1-0.7
		c0-0.4,0.2-0.8,0.3-1.1c0.1,0.3,0.1,0.8,0.1,1.1c0,0.4,0,0.6,0,0.6c0,0.1,0,0.1,0,0.2l1.5,0c0-0.3-0.1-0.7-0.1-1
		c0,0-0.1-0.6-0.2-1.3c-0.1-0.7-0.3-1.6-0.3-2.3c0.3,0.6,0.5,1.4,0.7,2.1C40.6,21.2,40.7,21.8,40.7,21.8z"/>
	<path class="st1" d="M41.4,9.2l-0.6-2.1c0,0.1-0.1,0.2-0.3,0.2c-0.2,0.1-0.4,0.2-0.6,0.2c0.1-0.2,0.3-0.4,0.4-0.6
		c0.1-0.2,0.2-0.3,0.2-0.3c0-0.1,0.1-0.1,0.1-0.2l-1.3-4.3l-2.1,7L41.4,9.2z"/>
	<polygon class="st2" points="37.8,4.2 35.4,7.5 36.4,8.7 	"/>
	<path class="st3" d="M45,26.6c0-0.2,0-0.4-0.1-0.6l-0.7,0c0,0-0.9,0-1.5-0.3c0.5-0.3,1.5-0.3,1.5-0.3l0.4,0c0,0,0-0.1-0.1-0.1
		c-0.2-0.3-0.6-0.5-0.9-0.5l-7.6,0c0,0,0,0,0,0l-1.1,0c-0.7,0-1.2,0.7-1.3,1.5l1.2,0c0,0,2,0,3.1,0.3c-1.1,0.3-3.1,0.3-3.1,0.3
		l-1.1,0c0.1,0.8,0.7,1.4,1.3,1.4l8.8,0l0,0C44.5,28.3,45,27.5,45,26.6z"/>
	<path class="st4" d="M43.7,30.2l-8.8,0c-0.2,0-0.5,0.1-0.7,0.2c-0.4,0.3-0.7,0.9-0.7,1.5c0,0.1,0,0.1,0,0.2l1.6,0
		c0,0,2.1,0,3.3,0.3c-1.2,0.3-3.3,0.3-3.3,0.3l-1.4,0c0.2,0.6,0.7,1,1.2,1l8.8,0l0,0c0.3,0,0.7-0.2,0.9-0.5c0.2-0.3,0.4-0.8,0.4-1.2
		c0-0.5-0.1-0.9-0.4-1.2C44.4,30.4,44.1,30.2,43.7,30.2z"/>
	<path class="st1" d="M37.6,104.9c0.1-0.1,0.2-0.3,0.4-0.4c0.3-0.3,0.6-0.6,0.9-0.8c-0.1,0.4-0.4,0.8-0.7,1.2
		c-0.3,0.3-0.5,0.6-0.5,0.6c-0.1,0.1-0.1,0.1-0.2,0.2l0,5.3c0,0.6,0.2,1.1,0.5,1.6c0.3,0.4,0.7,0.6,1.2,0.6c0.9,0,1.7-1,1.7-2.2
		l0-11.8l-3.4,0V104.9z"/>
	<path class="st5" d="M37.6,35.6l0,8.4c0.1,0,0.3-0.1,0.5-0.1c0.3-0.1,0.6-0.2,0.9-0.3c-0.2,0.3-0.5,0.6-0.8,0.8
		c-0.3,0.2-0.6,0.2-0.6,0.2c0,0,0,0,0,0l0,2.1c0,0,0.2,0,0.3,0.1c0.2,0,0.4,0.1,0.6,0.2c-0.1,0.2-0.4,0.3-0.6,0.3
		c-0.1,0-0.2,0-0.3,0v41l0.1,0c0,0,0.8-0.1,1.2,0.1c-0.4,0.3-1.2,0.4-1.2,0.4l-0.2,0l0,1.3c0.2,0,0.6,0.1,0.8,0.3
		c-0.2,0.2-0.6,0.3-0.8,0.3V98l3.4,0l0-14.7c-0.1-0.1-0.2-0.1-0.4-0.2c0,0-0.2-0.1-0.5-0.4c-0.3-0.2-0.6-0.6-0.7-1
		c0.3,0.1,0.6,0.4,0.9,0.5c0.3,0.2,0.5,0.3,0.5,0.3c0.1,0,0.1,0.1,0.2,0.1l0-18.1c-0.1,0-0.2,0-0.2,0c0,0-0.2,0-0.5-0.1
		c-0.3-0.1-0.6-0.3-0.7-0.5c0.3,0,0.6,0,0.8,0c0.3,0,0.5,0.1,0.5,0.1c0.1,0,0.1,0,0.2,0l0-23.8c0,0,0,0,0,0c0,0-0.2-0.1-0.5-0.3
		c-0.3-0.2-0.6-0.5-0.7-0.8c0.3,0.1,0.6,0.2,0.9,0.4c0.2,0.1,0.3,0.1,0.4,0.2v-4l-0.5,0L37.6,35.6z"/>
	<polygon class="st2" points="36.1,10.1 35.3,9.1 35.3,20.8 36.1,22.3 	"/>
	<g>
		<path class="st6" d="M38.6,18.7c0.1-1.5,0.1-3,0.2-4.6c0-0.6-0.7-0.6-0.7,0c-0.1,1.5-0.1,3-0.2,4.6C37.8,19.4,38.6,19.4,38.6,18.7
			L38.6,18.7z"/>
	</g>
	<g>
		<path class="st6" d="M38.9,12.8c0.4-0.3,0-1.2-0.4-0.8C38.1,12.2,38.4,13.1,38.9,12.8L38.9,12.8z"/>
	</g>
	<g>
		<path class="st6" d="M37.3,26.9c0.6,0.1,1.1,0.1,1.7,0.2c0.5,0,0.5-0.9,0-1c-0.6-0.1-1.1-0.1-1.7-0.2
			C36.8,25.9,36.8,26.9,37.3,26.9L37.3,26.9z"/>
	</g>
	<g>
		<path class="st6" d="M40.5,27c0.4-0.3,0-1.2-0.4-0.8C39.7,26.5,40,27.3,40.5,27L40.5,27z"/>
	</g>
	<g>
		<path class="st6" d="M42.1,32.3c0.4-0.3,0-1.2-0.4-0.8C41.3,31.8,41.6,32.7,42.1,32.3L42.1,32.3z"/>
	</g>
	<g>
		<path class="st6" d="M40.3,32.5c0.4-0.3,0-1.2-0.4-0.8C39.5,32,39.8,32.8,40.3,32.5L40.3,32.5z"/>
	</g>
	<g>
		<path class="st6" d="M39.5,76.5c0.4-3.5,0.6-7,0.6-10.6c0-0.6-0.7-0.6-0.7,0c0,3.5-0.2,6.9-0.6,10.3
			C38.7,76.9,39.4,77.1,39.5,76.5L39.5,76.5z"/>
	</g>
	<g>
		<path class="st6" d="M39.9,62.4c0.4-0.3,0-1.2-0.4-0.8C39.2,61.9,39.5,62.7,39.9,62.4L39.9,62.4z"/>
	</g>
	<g>
		<path class="st6" d="M39.9,59.8c0.4-0.3,0-1.2-0.4-0.8C39.2,59.3,39.5,60.1,39.9,59.8L39.9,59.8z"/>
	</g>
	<g>
		<path class="st6" d="M38.9,109.9c0.1-1,0.2-2,0.3-3c0.1-0.6-0.6-0.9-0.7-0.3c-0.1,1-0.2,2-0.3,3C38.2,110.3,38.9,110.5,38.9,109.9
			L38.9,109.9z"/>
	</g>
	<g>
		<path class="st6" d="M39.6,105c0.4-0.3,0-1.2-0.4-0.8C38.8,104.5,39.2,105.4,39.6,105L39.6,105z"/>
	</g>
	<path class="st7" d="M46.5,32c0-1-0.3-1.9-0.8-2.6c0,0-0.1-0.1-0.1-0.1c0.6-0.7,0.9-1.6,0.9-2.7c0-1-0.3-1.9-0.8-2.6
		c-0.5-0.6-1.1-1-1.7-1.1l0.7-1.3c0.1-0.2,0.1-0.4,0.1-0.6l0-13.9c0-0.2-0.1-0.5-0.2-0.7l-4.8-6.7c-0.1-0.2-0.3-0.3-0.5-0.3
		c-0.2,0-0.4,0.1-0.5,0.3L34,6.5c-0.1,0.2-0.2,0.4-0.2,0.7l0,13.9c0,0.2,0,0.4,0.1,0.6l0.7,1.3C34,23,33.4,23.4,33,24
		c-0.5,0.7-0.8,1.6-0.8,2.6c0,1.1,0.3,2,0.9,2.7c-0.6,0.7-0.9,1.6-0.9,2.7c0,2,1.3,3.7,2.8,3.7l1.2,0l0,75.4c0,1.1,0.3,2.2,0.9,2.9
		c0.6,0.8,1.4,1.2,2.2,1.2c0.6,0,1.1-0.2,1.6-0.6c0.9-0.7,1.6-2.1,1.6-3.6l0-75.4l1.2,0c0.5,0,1-0.2,1.4-0.5
		c0.2-0.2,0.4-0.4,0.6-0.6C46.2,33.9,46.5,32.9,46.5,32z M43.3,20.8l-0.8,1.5V10.1l0.8-1L43.3,20.8z M39.7,18.3
		c0.1,0.7,0.2,1.5,0.3,2.3c0.1,0.7,0.2,1.3,0.2,1.3c0.1,0.3,0.1,0.7,0.1,1l-1.5,0c0-0.1,0-0.1,0-0.2c0,0,0-0.3,0-0.6
		c0-0.4,0-0.8-0.1-1.1c-0.1,0.3-0.3,0.7-0.3,1.1c-0.1,0.4-0.1,0.7-0.1,0.7c0,0.1,0,0.2,0,0.2l-1.4,0l0-12.5l4.6,0l0,12.5l-0.8,0
		c0-0.4-0.1-0.8-0.2-1.1c0,0-0.1-0.6-0.3-1.3C40.3,19.7,40,18.9,39.7,18.3z M40.9,4.2l2.3,3.3l-1,1.3L40.9,4.2z M40.6,6.5
		c0,0.1-0.1,0.1-0.1,0.2c0,0-0.1,0.1-0.2,0.3c-0.1,0.2-0.3,0.4-0.4,0.6c0.2,0.1,0.4,0,0.6-0.2c0.1-0.1,0.2-0.2,0.3-0.2l0.6,2.1
		l-4.2,0l2.1-7L40.6,6.5z M37.8,4.2l-1.4,4.5l-1-1.3L37.8,4.2z M35.3,9.1l0.8,1l0,12.2l-0.8-1.5L35.3,9.1z M41,111
		c0,1.2-0.8,2.2-1.7,2.2c-0.5,0-0.9-0.2-1.2-0.6c-0.3-0.4-0.5-1-0.5-1.6l0-5.3c0.1-0.1,0.1-0.1,0.2-0.2c0,0,0.2-0.2,0.5-0.6
		c0.3-0.3,0.5-0.8,0.7-1.2c-0.3,0.2-0.7,0.5-0.9,0.8c-0.2,0.2-0.4,0.4-0.4,0.4v-5.7l3.4,0L41,111z M41,39.6c-0.1,0-0.2-0.1-0.4-0.2
		c-0.3-0.1-0.6-0.3-0.9-0.4c0.2,0.3,0.5,0.6,0.7,0.8c0.3,0.2,0.5,0.3,0.5,0.3c0,0,0,0,0,0L41,64c-0.1,0-0.1,0-0.2,0
		c0,0-0.2,0-0.5-0.1c-0.3,0-0.6-0.1-0.8,0c0.2,0.2,0.5,0.4,0.7,0.5c0.3,0.1,0.5,0.1,0.5,0.1c0.1,0,0.2,0,0.2,0l0,18.1
		c-0.1,0-0.1-0.1-0.2-0.1c0,0-0.2-0.1-0.5-0.3c-0.3-0.2-0.6-0.4-0.9-0.5c0.1,0.4,0.4,0.7,0.7,1c0.3,0.2,0.5,0.4,0.5,0.4
		c0.1,0.1,0.2,0.1,0.4,0.2L41,98l-3.4,0v-7.3c0.2,0,0.6-0.1,0.8-0.3c-0.2-0.2-0.6-0.3-0.8-0.3l0-1.3l0.2,0c0,0,0.8-0.1,1.2-0.4
		c-0.5-0.2-1.2-0.1-1.2-0.1l-0.1,0v-41c0.1,0,0.2,0,0.3,0c0.2,0,0.4-0.1,0.6-0.3c-0.2-0.1-0.4-0.2-0.6-0.2c-0.1,0-0.2-0.1-0.3-0.1
		l0-2.1c0,0,0,0,0,0c0,0,0.3-0.1,0.6-0.2c0.3-0.2,0.6-0.5,0.8-0.8c-0.3,0.1-0.6,0.2-0.9,0.3c-0.2,0.1-0.4,0.1-0.5,0.1l0-8.4l2.8,0
		l0.5,0V39.6z M45,32c0,0.5-0.1,0.9-0.4,1.2c-0.2,0.3-0.6,0.5-0.9,0.5l0,0l-8.8,0c-0.5,0-1-0.4-1.2-1l1.4,0c0,0,2.1,0,3.3-0.3
		c-1.2-0.3-3.3-0.3-3.3-0.3l-1.6,0c0-0.1,0-0.1,0-0.2c0-0.6,0.3-1.2,0.7-1.5c0.2-0.1,0.4-0.2,0.7-0.2l8.8,0c0.3,0,0.7,0.2,0.9,0.5
		C44.9,31.1,45,31.5,45,32z M43.7,28.3l-8.8,0c-0.6,0-1.2-0.6-1.3-1.4l1.1,0c0,0,2,0,3.1-0.3c-1.1-0.3-3.1-0.3-3.1-0.3l-1.2,0
		c0.1-0.8,0.6-1.5,1.3-1.5l1.1,0c0,0,0,0,0,0l7.6,0c0.3,0,0.7,0.2,0.9,0.5c0,0,0,0.1,0.1,0.1l-0.4,0c0,0-0.9,0-1.5,0.3
		c0.5,0.3,1.5,0.3,1.5,0.3l0.7,0c0,0.2,0.1,0.4,0.1,0.6C45,27.5,44.5,28.3,43.7,28.3L43.7,28.3z"/>
</g>
<g id="Layer_2">
	<g>
		<path class="st8" d="M65,16.4L65,16.4c3.5,1.9,5.8,5.6,5.8,10.2c0,2.1-0.2,2.4-1.4,4.8c0,0-0.7,1.5-1.7,2l0,0l0,0
			c0,0-1.3,1.5,0.9,2.9c1.7,1.1-5.3,3.4-8.3,3.7c-3-0.3-10.3-2.7-8.6-3.7c2.2-1.4,0.6-2.9,0.6-2.9l0,0c-1-0.4-1.8-2.7-1.8-2.7
			c-0.5-1.5-1.1-2.6-1.1-4.7c0-4.6,2.4-7.9,5.9-9.7l0,0c0-0.6,3.1-2,5-2C62.1,14.3,64.9,15.9,65,16.4L65,16.4z M47.6,43.9
			c0,0-3.2-5.7-7-4.7c-3.9,1.1-4.3,3.7-4.3,6c0,3.2,3.3,5,3.3,5C41.6,46.7,47.6,43.9,47.6,43.9z M80.4,50.2c0,0,3.3-1.9,3.3-5
			c0-2.2-0.4-4.9-4.3-6c-3.8-1-7,4.7-7,4.7S78.4,46.7,80.4,50.2z M39.7,67.5c0,0-4.7,3.8-4.3,6.3c0.6,3.6,4.3,3.3,6.5,3.3
			c4.5-0.1,3.1-2.3,3.1-2.3S42,70.9,39.7,67.5z M75.1,74.7c0,0-1.4,2.2,3.1,2.3c2.2,0,5.9,0.3,6.5-3.3c0.4-2.5-4.3-6.3-4.3-6.3
			C78,70.9,75.1,74.7,75.1,74.7z M54.9,83c0,0,3.6,6.6,11.1,7.6c0.6,0.1,1.2-0.9,0.9-1.3c-2.5-3.8-2.3-6.3-2.3-6.3l-4.5-1.7L54.9,83
			z"/>
		<path class="st9" d="M52.9,32.5c-0.9-0.2-1.2-0.8-1.6-1.6c-1.7-4-1.7-5.4-1.5-5.9c2-2.5,3.6-0.4,6-3.8c1.8-2.4-0.3-3.7,0-3.9
			c0.5-0.3-0.2-1,0-1.1c1.6-1.1,4.1-1.5,4.1-1.5s2.5,0.3,4.1,1.5c0.2,0.1-0.5,0.8,0,1.1c0.3,0.2-1.7,1.4,0,3.9c2.5,3.4,4,1.3,6,3.8
			c0.3,0.5,0.2,2-1.5,5.9c-0.4,0.8-0.7,1.4-1.6,1.6c-2.3,0-4.1,1.5-7.1,1.5C57.1,34,55.3,32.5,52.9,32.5z M60.1,38.9
			c3,0.1,8.7-1.1,7.2-2.4c-1.9-1.6,0-3-0.3-3c-2.3,0-2.9,1.6-6.9,1.6s-4.5-1.6-6.9-1.6c-0.3-0.1,1.6,1.4-0.3,3
			C51.4,37.9,57.1,39.1,60.1,38.9z M44.9,46.1c1.1-1.2,2.1-1.8,2.1-1.8s-3.8-5.5-6.4-4.3c-0.8,0.4-1.2,0.7-1.8,1.1L44.9,46.1z
			 M81.1,41.2c-0.4-0.4-0.9-0.7-1.7-1.1C77,38.8,73,44.2,73,44.2s1,0.6,2.1,1.8L81.1,41.2z M40.3,69.5c-1-1,0,0.5-0.8-0.8
			c0,0-4.4,3.3-3.1,5.2c0.1,0.2,0.5,0.7,1,0.1L40.3,69.5z M82.7,74.1c0.5,0.6,0.9,0,1-0.1c1.3-1.9-3.1-5.2-3.1-5.2
			c-0.9,1.3,0.2-0.3-0.8,0.8L82.7,74.1z M58.9,86.1c1.4,1.6,5.4,3.8,6,3.5c0.4-0.2-2.7-1.6-4.3-3.3c-1.9-1.9-2.2-4.2-2.2-4.2
			l-1.8,0.4C56.6,82.5,57.7,84.8,58.9,86.1z"/>
		<g id="shell_1_">
			<path class="st10" d="M60.3,82.7c1,0,3.1,1.1,4.9,0.7c3.9-0.9,7.3-2.9,10.2-5.5c1.4-1.3,0-3.1,1.7-5.2c2.4-3,4-2.4,4.7-4.2
				c1.2-3.1,1.9-6.4,1.9-9.9c0-3.4-0.7-6.7-1.9-9.6c-0.7-1.7-3.5-2.4-4.5-3.8c-1.1-1.6-0.3-4-1.7-5.4c-0.2-0.2-0.2-0.2-0.2-0.2
				c-0.2-0.2-0.4-0.5-0.6-0.6s-1.5-1.5-2.3-2c-4.3-3-9.2,1.1-12.2,1.1c-4,0-8.4-4-12.6-1.1c-0.8,0.6-2.5,1.9-2.7,2s-0.4,0.4-0.6,0.6
				c0,0,0,0-0.2,0.2c-1.4,1.4-0.7,3.8-1.8,5.4c-1,1.5-3.8,2.2-4.5,3.8c-1.2,3-1.9,6.2-1.9,9.6c0,3.5,0.7,6.9,1.9,9.9
				c0.7,1.8,2.4,1.2,4.8,4.2c1.7,2.1,0.4,3.9,1.8,5.2c2.9,2.6,6.6,4.6,10.5,5.5C56.8,83.8,58.3,82.7,60.3,82.7z"/>
			<path class="st11" d="M60.3,70.5h-4c-1.1,0-2.4-0.8-2.9-1.7l-4.2-7.6c-0.5-0.9-0.5-2.3,0-3.2l4.2-7.7c0.5-0.9,1.8-1.8,2.9-1.8h4
				h3.1c1.1,0,2.4,0.9,2.9,1.8l4.2,7.6c0.5,0.9,0.5,2.4,0,3.3l-4.2,7.7c-0.5,0.9-1.8,1.7-2.9,1.7L60.3,70.5 M60.3,45.5h3.1
				c1.1,0,2.6-0.3,3.3-1.1l3.6-3.8c0.7-0.8,1.1-1.6,0.8-1.7c0,0,0.1,0-0.1-0.2c-3.3-2.1-5.7,1.6-10.7,1.6c-6,0-7.8-3.7-11.1-1.6
				c-0.2,0.2-0.4,0.1-0.4,0.1c-0.3,0.2,0.1,0.9,0.8,1.7l3.5,4c0.7,0.8,2.1,1.1,3.2,1.1L60.3,45.5L60.3,45.5z M65,81
				c1.9-0.5,3.4-1.4,3.4-1.4c1-0.5,1.2-1.5,0.6-2.4l-2.6-3.4c-0.6-0.8-2-1.4-3.1-1.4h-3h-3.9c-1.1,0-2.5,0.5-3.1,1.4l-2.6,3.3
				c-0.6,0.8-0.3,1.9,0.7,2.4c0,0,1.8,0.9,3.8,1.4c1.7,0.5,3.2-0.2,5.2-0.2C61.3,80.9,63.3,81.5,65,81z M69.2,46.1
				c-0.7,0.8-0.8,2.2-0.4,3.1l3.9,7.6c0.5,0.9,1.8,1.7,2.9,1.7h3.6c1.1,0,1.9-0.9,1.8-1.9c0,0-0.5-4.5-1.6-7.2
				c-0.6-1.4-3.3-1.9-4.1-3.1c-0.9-1.4,0-3.7-1.2-4.8C74,41.3,74,41.3,74,41.3c-0.2-0.2-0.9,0.3-1.6,1.1L69.2,46.1z M47.3,42.3
				c-0.7-0.8-1.4-1.3-1.6-1.1c0,0,0,0-0.2,0.2c-1.2,1.2-0.3,3.4-1.2,4.9c-0.8,1.3-3.5,1.7-4.1,3.1c-1.1,2.7-1.6,7.2-1.6,7.2
				c-0.1,1,0.7,1.9,1.8,1.9H44c1.1,0,2.4-0.8,2.9-1.7l3.9-7.6c0.5-0.9,0.3-2.3-0.4-3.1L47.3,42.3z M47,62.8
				c-0.5-0.9-1.8-1.3-2.9-1.3h-3.5c-1.1,0-1.9,0.5-1.7,1.5c0,0,0.5,2.8,1.5,5c0.6,1.5,2.5,1.3,4,3.2c1.3,1.6,0.4,3.7,1.6,4.9
				c0.4,0.4,0.4,0.4,0.4,0.4c0.4,0.4,1.3,0,1.9-0.8l2.3-3.1c0.6-0.8,0.7-2.2,0.2-3.1L47,62.8z M68.8,69.5c-0.5,0.9-0.4,2.1,0.2,3
				l2.3,3.1c0.6,0.8,1.5,1.2,1.9,0.8c0,0,0,0,0.4-0.3c1.3-1.2,0.4-3.2,1.6-4.8c1.4-1.8,3.4-1.6,4-3.1c0.9-2.2,1.5-5.1,1.5-5.1
				c0.2-1-0.6-1.5-1.7-1.5h-3.5c-1.1,0-2.4,0.5-2.9,1.3L68.8,69.5z"/>
			<path class="st12" d="M56.3,70.5c-0.6,0-1.4-0.3-1.9-0.7c-0.1-0.1-0.1-0.2-0.2-0.2L50,61.9c-0.5-0.9-0.5-2.3,0-3.2l4.2-7.7
				c0.5-0.9,1.8-1.8,2.9-1.8h4h3.1c0.6,0,1.3,0.3,1.9,0.7c0.1,0.1,0.2,0.2,0.2,0.3l4.2,7.6c0.5,0.9,0.5,2.4,0,3.3l-4.2,7.7
				c-0.5,0.9-1.8,1.7-2.9,1.7h-3.1l0,0C60.3,70.5,56.3,70.5,56.3,70.5z M60.3,45.5h3.1c1.1,0,2.6-0.3,3.3-1.1l3.6-3.8
				c0.5-0.6,0.8-1.2,0.9-1.5c-3-1.4-5.4,1.9-10,1.9c-6,0-7.8-3.7-11.1-1.6c-0.2,0.2-0.4,0.1-0.4,0.1c-0.3,0.2,0.1,0.9,0.8,1.7
				l3.2,3.6c0.8,0.5,1.9,0.7,2.7,0.7C56.4,45.5,60.3,45.5,60.3,45.5z M60.3,80.9c1,0,3,0.7,4.7,0.2c1.9-0.5,3.4-1.4,3.4-1.4
				c1-0.5,1.2-1.5,0.6-2.4L66.6,74c-0.7-0.5-1.6-0.7-2.4-0.7h-3h-3.9c-1.1,0-2.5,0.5-3.1,1.4L51.6,78c-0.4,0.5-0.4,1.1-0.1,1.7
				c0.1,0,1.9,0.9,3.7,1.4C56.9,81.5,58.3,80.9,60.3,80.9z M79.4,49.4c0-0.1-0.1-0.2-0.2-0.3c-1-0.7-2.5-1.2-3.1-2.1l0,0
				c-0.3-0.2-0.6-0.4-0.8-0.7c-0.8-1.2-0.2-3.1-0.8-4.3c-0.3,0.1-0.9,0.5-1.4,1.1L70,46.9c-0.7,0.8-0.8,2.2-0.4,3.1l3.9,7.6
				c0.1,0.1,0.1,0.2,0.2,0.3c0.6,0.4,1.2,0.7,1.9,0.7h3.6c1.1,0,1.9-0.9,1.8-1.9C81,56.6,80.5,52.1,79.4,49.4z M50.5,46.1l-3.2-3.7
				c0,0,0-0.1-0.1-0.1c-0.3-0.3-0.6-0.4-0.7-0.3c0,0,0,0-0.2,0.2c-1.2,1.2-0.3,3.4-1.2,4.9c-0.8,1.3-3.5,1.7-4.1,3.1
				c-1.1,2.7-1.6,7.2-1.6,7.2c0,0.3,0,0.7,0.2,1c0.2,0.1,0.5,0.2,0.8,0.2H44c1.1,0,2.4-0.8,2.9-1.7l3.9-7.6
				C51.4,48.2,51.2,46.9,50.5,46.1z M47,62.8L47,62.8c-0.6-0.4-1.4-0.6-2.1-0.6h-3.5c-1.1,0-1.9,0.5-1.7,1.5c0,0,0.5,2.8,1.5,5
				c0,0.1,0.1,0.2,0.2,0.3c0.8,0.5,1.9,0.9,2.9,2c0.3,0.2,0.6,0.5,0.9,0.9c1.2,1.5,0.5,3.4,1.4,4.6c0.5,0.2,1.2-0.2,1.7-0.9l2.3-3.1
				c0.6-0.8,0.7-2.2,0.2-3.1L47,62.8z M80.7,62.4c-0.3-0.1-0.5-0.1-0.9-0.1h-3.5c-1.1,0-2.4,0.5-2.9,1.3l-3.9,6.6
				c-0.5,0.9-0.4,2.1,0.2,3l2.3,3.1c0.4,0.3,0.9,0.3,1.1,0.1c0,0,0,0,0.4-0.3c1.3-1.2,0.4-3.2,1.6-4.8c1.4-1.8,3.4-1.6,4-3.1
				c0.9-2.2,1.5-5.1,1.5-5.1C80.8,62.8,80.8,62.6,80.7,62.4z"/>
		</g>
		<g id="eyes_1_">
			<path class="st6" d="M64.7,17.2c0,0-1,1.9,0.6,3.7c1.6,1.8,3.5,0.7,3.5,0.7S67.4,18.7,64.7,17.2z M55.5,17.2c0,0,1,1.9-0.6,3.7
				c-1.6,1.8-3.5,0.7-3.5,0.7S52.8,18.7,55.5,17.2z"/>
			<path class="st13" d="M54.7,20.2c0.6-0.7,0.4-1.8,0.1-2.6c-1.1,0.7-1.9,1.7-2.5,2.5C53,20.5,54,21,54.7,20.2z M65.5,20.2
				c-0.6-0.7-0.4-1.8-0.1-2.6c1.1,0.7,1.9,1.7,2.5,2.5C67.2,20.5,66.2,21,65.5,20.2z"/>
		</g>
	</g>
	<g class="st14">
		<path class="st15" d="M67.8,28.7c0,0-8.6-0.4-8.7-8.7C59.1,20,59.7,27,67.8,28.7L67.8,28.7z M61.9,18.5c0,0,0.3,1.1,1.5,2.6
			L61.1,23c-0.5-0.8-0.9-1.8-1.3-2.9L61.9,18.5L61.9,18.5z M63.8,21.6c0.6,0.7,1.3,1.4,2.2,2.1l-2,2.5c-0.9-0.6-1.8-1.5-2.6-2.7
			L63.8,21.6L63.8,21.6z M69.2,25.7L67.7,28c0,0-1.5-0.3-3.2-1.4l1.9-2.5C67.1,24.6,68.1,25.2,69.2,25.7L69.2,25.7z M68.4,28l8.4-12
			l0.7,2.9c0.1,2.2,1.7,1.7,1.7,1.7s3.1-0.7,6.1-2.4c3-1.7,0.1-1.6,0.1-1.6l-3.8-0.2l-0.8-3.5c-0.3-1.4-0.8-2.3-1.5-2.9
			c0-0.3-0.5-0.6-1.6-0.7c0,0,0,0,0,0c-0.8-0.1-1.6,0-2.4,0.2c-6.3,1.5-15.6,10-15.6,10c-3.5-2.4-6.5-3.3-7.7-2.1
			c-1.8,1.8,1,7.4,6.2,12.6c5.2,5.2,10.8,7.9,12.6,6.2C72,34.8,70.9,31.6,68.4,28L68.4,28z"/>
	</g>
	<path class="st16" d="M71.1,30.4l9.1-14.5l1.4,3.9c0.5,3,2.6,2.6,2.6,2.6s4-0.4,7.7-2.1c3.7-1.7-0.1-2.1-0.1-2.1l-5.1-1l-1.7-4.8
		c-0.6-1.9-1.5-3.3-2.5-4.1c-0.1-0.4-0.7-0.9-2.3-1.3c0,0,0,0,0,0C79,6.6,78,6.6,77,6.8c-8.1,0.9-19.1,10.6-19.1,10.6
		c-5-3.7-9.2-5.5-10.6-4.1c-2.1,2.1,2.6,10,10.4,17.9s15.8,12.5,17.9,10.4C77,40.1,75.1,35.6,71.1,30.4z M71.7,27.4l-1.5,2.7
		c0,0-2-0.6-4.5-2.4l2-3.1C68.8,25.6,70.2,26.5,71.7,27.4z M63.8,21c0.9,1,2,2.1,3.3,3.2l-2.2,3c-1.3-1-2.6-2.3-3.9-4L63.8,21z
		 M60.8,16.5c0,0,0.7,1.6,2.4,3.7l-2.7,2.1c-0.8-1.2-1.6-2.6-2.2-4.1L60.8,16.5z M70.4,31.1c0,0-11.5-2.1-13.1-13.1
		C57.3,18,59.3,27.5,70.4,31.1z"/>
	
		<rect x="55.5" y="19.2" transform="matrix(0.7071 0.7071 -0.7071 0.7071 35.2398 -37.9393)" class="st16" width="15.8" height="8.7"/>
	
		<rect x="67.4" y="25.6" transform="matrix(0.8192 0.5736 -0.5736 0.8192 29.1362 -34.6016)" class="st16" width="4.1" height="6.6"/>
	<rect x="67.1" y="29.3" class="st16" width="0.4" height="0.4"/>
</g>
</svg>
