<?xml version="1.0" encoding="utf-8"?>
<!-- Generator: Adobe Illustrator 22.1.0, SVG Export Plug-In . SVG Version: 6.00 Build 0)  -->
<svg version="1.1" id="Layer_1" xmlns="http://www.w3.org/2000/svg" xmlns:xlink="http://www.w3.org/1999/xlink" x="0px" y="0px"
	 viewBox="0 0 120 120" style="enable-background:new 0 0 120 120;" xml:space="preserve">
<style type="text/css">
	.st0{fill:#525456;}
	.st1{fill:#343638;}
	.st2{fill:#323436;}
	.st3{fill:#8AC24D;}
	.st4{fill:#A3D165;}
	.st5{fill:#528918;}
	.st6{fill:#63A51E;}
	.st7{opacity:0.15;fill:#FFFFFF;enable-background:new    ;}
	.st8{fill:#FFFFFF;}
	.st9{fill:#406813;}
	.st10{fill:none;}
	.st11{fill:#9B0404;}
	.st12{fill:#C6C6C6;}
	.st13{fill:#CACCCC;}
	.st14{fill:#A2A3A3;}
</style>
<g id="sword">
</g>
<g id="Layer_1_1_">
	<g>
		<path class="st0" d="M34.7,52.7L34.7,52.7L34.7,52.7L34.7,52.7L34.7,52.7z"/>
		<polygon class="st0" points="37.6,67.7 34.8,58.7 36.4,58.4 38,58 40.8,67 39.2,67.3 		"/>
		<path class="st0" d="M37.7,68.5c0-0.1,0-0.2,0-0.3l1.7-0.4l1.7-0.4c0.1,0.1,0.1,0.2,0.2,0.2l0.4,0.5c0.6,0.7,0.6,1.6,0.1,2.2
			C41.5,70.7,41,71,40.4,71c-0.5,0.2-1.1,0.2-1.6,0c-0.8-0.4-1.3-1.2-1.2-2L37.7,68.5L37.7,68.5z"/>
		<path class="st0" d="M24.9,52.9c0,0,0.5,1.2,3.3,1c0.5,0,1-0.1,1.4-0.3c0.5-0.3,0.7-0.9,0.6-1.4l4.6,0.4l0,0l0,0l0,0l0,0l3.8-2.3
			c0.2,0.5,0.7,0.9,1.2,1c0.4,0,0.9-0.1,1.3-0.3c2.4-1,2.2-2.3,2.2-2.3s2.5,3.7-2.9,5.2c-0.1,0-0.2,0-0.3,0.1
			c-1.7,0.3-2.7,1.9-2.3,3.6L36.2,58l-1.6,0.4c-0.6-1.6-2.4-2.5-4-2.1c-0.1,0-0.2,0.1-0.3,0.1C24.9,57.2,24.9,52.9,24.9,52.9
			L24.9,52.9z"/>
		<polygon class="st1" points="37.6,67.7 34.8,58.7 36.4,58.4 39.2,67.3 		"/>
		<path class="st1" d="M38.8,71.1c-0.8-0.4-1.3-1.2-1.2-2l0.1-0.6c0-0.1,0-0.2,0-0.3l1.7-0.4l1,3.3C39.9,71.3,39.3,71.4,38.8,71.1
			L38.8,71.1z"/>
		<path class="st1" d="M24.9,52.9c0,0,0.5,1.2,3.3,1c0.5,0,1-0.1,1.4-0.3c0.5-0.3,0.7-0.9,0.6-1.4l4.6,0.4l0,0l1.6,5.2l-1.6,0.4
			c-0.6-1.6-2.4-2.5-4-2.1c-0.1,0-0.2,0.1-0.3,0.1C24.9,57.2,24.9,52.9,24.9,52.9L24.9,52.9z"/>
		<path class="st0" d="M22,13.4c0-0.1,0-0.2,0-0.3c0-0.2,0.2-0.3,0.3-0.4l0,0c0.3-0.1,0.7,0,0.8,0.4l10.6,34.4
			c0.1,0.3-0.1,0.6-0.5,0.7l0,0l0,0l0,0c-0.3,0-0.6-0.1-0.6-0.4L22,13.4L22,13.4z M29.7,51.2c1.9,0.5,4.5,1.3,5,1.4l0,0
			c0.2-0.2,2.1-2.1,3.5-3.4c-1-1.9-11.5-21.9-11.7-36.4c0,0-2.3-4.4-6.6-8l0,0c-2.4-1.9-5.4-3.6-9-4.2C10.9,0.7,25.6,22,29.7,51.2
			L29.7,51.2z"/>
		<path class="st2" d="M33.3,48.2c0.3,0,0.6-0.3,0.5-0.7L23.1,13.2c-0.1-0.4-0.5-0.5-0.8-0.4l0,0l-2.4-7.9c4.3,3.6,6.6,8,6.6,8
			c0.3,14.5,10.7,34.5,11.7,36.4c-1.4,1.3-3.3,3.1-3.5,3.4l0,0L33.3,48.2L33.3,48.2L33.3,48.2z"/>
	</g>
	<g>
		<path class="st3" d="M65,16.4L65,16.4c3.5,1.9,5.8,5.6,5.8,10.2c0,2.1-0.2,2.4-1.4,4.8c0,0-0.7,1.5-1.7,2l0,0l0,0
			c0,0-1.3,1.5,0.9,2.9c1.7,1.1-5.3,3.4-8.3,3.7c-3-0.3-10.3-2.7-8.6-3.7c2.2-1.4,0.6-2.9,0.6-2.9l0,0c-1-0.4-1.8-2.7-1.8-2.7
			c-0.5-1.5-1.1-2.6-1.1-4.7c0-4.6,2.4-7.9,5.9-9.7l0,0c0-0.6,3.1-2,5-2C62.1,14.3,64.9,15.9,65,16.4L65,16.4z M47.6,43.9
			c0,0-3.2-5.7-7-4.7c-3.9,1.1-4.3,3.7-4.3,6c0,3.2,3.3,5,3.3,5C41.6,46.7,47.6,43.9,47.6,43.9z M80.4,50.2c0,0,3.3-1.9,3.3-5
			c0-2.2-0.4-4.9-4.3-6c-3.8-1-7,4.7-7,4.7S78.4,46.7,80.4,50.2z M39.7,67.5c0,0-4.7,3.8-4.3,6.3c0.6,3.6,4.3,3.3,6.5,3.3
			c4.5-0.1,3.1-2.3,3.1-2.3S42,70.9,39.7,67.5z M75.1,74.7c0,0-1.4,2.2,3.1,2.3c2.2,0,5.9,0.3,6.5-3.3c0.4-2.5-4.3-6.3-4.3-6.3
			C78,70.9,75.1,74.7,75.1,74.7z M54.9,83c0,0,3.6,6.6,11.1,7.6c0.6,0.1,1.2-0.9,0.9-1.3c-2.5-3.8-2.3-6.3-2.3-6.3l-4.5-1.7L54.9,83
			z"/>
		<path class="st4" d="M52.9,32.5c-0.9-0.2-1.2-0.8-1.6-1.6c-1.7-4-1.7-5.4-1.5-5.9c0.1-0.1,0.1-0.2,0.2-0.3c0,0,0.4-0.4,0.9-0.7
			c0.8-0.5,1.8-0.4,2.9-0.9c0.6-0.3,1.2-0.8,1.9-1.8c1.8-2.4-0.3-3.7,0-3.9c0.5-0.3-0.2-1,0-1.1c1.6-1.1,4.1-1.5,4.1-1.5
			s2.5,0.3,4.1,1.5c0.2,0.1-0.5,0.8,0,1.1c0.3,0.2-1.7,1.4,0,3.9c2.5,3.4,4,1.3,6,3.8c0.3,0.5,0.2,2-1.5,5.9
			c-0.4,0.8-0.7,1.4-1.6,1.6c-2.3,0-4.1,1.5-7.1,1.5C57.1,34,55.3,32.5,52.9,32.5z M60.1,38.9c3,0.1,8.7-1.1,7.2-2.4
			c-1.9-1.6,0-3-0.3-3c-2.3,0-2.9,1.6-6.9,1.6s-4.5-1.6-6.9-1.6c-0.3-0.1,1.6,1.4-0.3,3C51.4,37.9,57.1,39.1,60.1,38.9z M44.9,46.1
			c1.1-1.2,2.1-1.8,2.1-1.8s-3.8-5.5-6.4-4.3c-0.8,0.4-1.2,0.7-1.8,1.1L44.9,46.1z M81.1,41.2c-0.4-0.4-0.9-0.7-1.7-1.1
			C77,38.8,73,44.2,73,44.2s1,0.6,2.1,1.8L81.1,41.2z M40.3,69.5c-1-1,0,0.5-0.8-0.8c0,0-4.4,3.3-3.1,5.2c0.1,0.2,0.5,0.7,1,0.1
			L40.3,69.5z M82.7,74.1c0.5,0.6,0.9,0,1-0.1c1.3-1.9-3.1-5.2-3.1-5.2c-0.9,1.3,0.2-0.3-0.8,0.8L82.7,74.1z M58.9,86.1
			c1.4,1.6,5.4,3.8,6,3.5c0.4-0.2-2.7-1.6-4.3-3.3c-1.9-1.9-2.2-4.2-2.2-4.2l-1.8,0.4C56.6,82.5,57.7,84.8,58.9,86.1z"/>
		<g id="shell_1_">
			<path class="st5" d="M60.3,82.7c1,0,3.1,1.1,4.9,0.7c3.9-0.9,7.3-2.9,10.2-5.5c1.4-1.3,0-3.1,1.7-5.2c2.4-3,4-2.4,4.7-4.2
				c1.2-3.1,1.9-6.4,1.9-9.9c0-3.4-0.7-6.7-1.9-9.6c-0.7-1.7-3.5-2.4-4.5-3.8c-1.1-1.6-0.3-4-1.7-5.4c-0.2-0.2-0.2-0.2-0.2-0.2
				c-0.2-0.2-0.4-0.5-0.6-0.6s-1.5-1.5-2.3-2c-4.3-3-9.2,1.1-12.2,1.1c-4,0-8.4-4-12.6-1.1c-0.8,0.6-2.5,1.9-2.7,2s-0.4,0.4-0.6,0.6
				c0,0,0,0-0.2,0.2c-1.4,1.4-0.7,3.8-1.8,5.4c-1,1.5-3.8,2.2-4.5,3.8c-1.2,3-1.9,6.2-1.9,9.6c0,3.5,0.7,6.9,1.9,9.9
				c0.7,1.8,2.4,1.2,4.8,4.2c1.7,2.1,0.4,3.9,1.8,5.2c2.9,2.6,6.6,4.6,10.5,5.5C56.8,83.8,58.3,82.7,60.3,82.7z"/>
			<path class="st6" d="M60.3,70.5h-4c-1.1,0-2.4-0.8-2.9-1.7l-4.2-7.6c-0.5-0.9-0.5-2.3,0-3.2l4.2-7.7c0.5-0.9,1.8-1.8,2.9-1.8h4
				h3.1c1.1,0,2.4,0.9,2.9,1.8l4.2,7.6c0.5,0.9,0.5,2.4,0,3.3l-4.2,7.7c-0.5,0.9-1.8,1.7-2.9,1.7L60.3,70.5 M60.3,45.5h3.1
				c1.1,0,2.6-0.3,3.3-1.1l3.6-3.8c0.7-0.8,1.1-1.6,0.8-1.7c0,0,0.1,0-0.1-0.2c-3.3-2.1-5.7,1.6-10.7,1.6c-6,0-7.8-3.7-11.1-1.6
				c-0.2,0.2-0.4,0.1-0.4,0.1c-0.3,0.2,0.1,0.9,0.8,1.7l3.5,4c0.7,0.8,2.1,1.1,3.2,1.1L60.3,45.5L60.3,45.5z M65,81
				c1.9-0.5,3.4-1.4,3.4-1.4c1-0.5,1.2-1.5,0.6-2.4l-2.6-3.4c-0.6-0.8-2-1.4-3.1-1.4h-3h-3.9c-1.1,0-2.5,0.5-3.1,1.4l-2.6,3.3
				c-0.6,0.8-0.3,1.9,0.7,2.4c0,0,1.8,0.9,3.8,1.4c1.7,0.5,3.2-0.2,5.2-0.2C61.3,80.9,63.3,81.5,65,81z M69.2,46.1
				c-0.7,0.8-0.8,2.2-0.4,3.1l3.9,7.6c0.5,0.9,1.8,1.7,2.9,1.7h3.6c1.1,0,1.9-0.9,1.8-1.9c0,0-0.5-4.5-1.6-7.2
				c-0.6-1.4-3.3-1.9-4.1-3.1c-0.9-1.4,0-3.7-1.2-4.8C74,41.3,74,41.3,74,41.3c-0.2-0.2-0.9,0.3-1.6,1.1L69.2,46.1z M47.3,42.3
				c-0.7-0.8-1.4-1.3-1.6-1.1c0,0,0,0-0.2,0.2c-1.2,1.2-0.3,3.4-1.2,4.9c-0.8,1.3-3.5,1.7-4.1,3.1c-1.1,2.7-1.6,7.2-1.6,7.2
				c-0.1,1,0.7,1.9,1.8,1.9H44c1.1,0,2.4-0.8,2.9-1.7l3.9-7.6c0.5-0.9,0.3-2.3-0.4-3.1L47.3,42.3z M47,62.8
				c-0.5-0.9-1.8-1.3-2.9-1.3h-3.5c-1.1,0-1.9,0.5-1.7,1.5c0,0,0.5,2.8,1.5,5c0.6,1.5,2.5,1.3,4,3.2c1.3,1.6,0.4,3.7,1.6,4.9
				c0.4,0.4,0.4,0.4,0.4,0.4c0.4,0.4,1.3,0,1.9-0.8l2.3-3.1c0.6-0.8,0.7-2.2,0.2-3.1L47,62.8z M68.8,69.5c-0.5,0.9-0.4,2.1,0.2,3
				l2.3,3.1c0.6,0.8,1.5,1.2,1.9,0.8c0,0,0,0,0.4-0.3c1.3-1.2,0.4-3.2,1.6-4.8c1.4-1.8,3.4-1.6,4-3.1c0.9-2.2,1.5-5.1,1.5-5.1
				c0.2-1-0.6-1.5-1.7-1.5h-3.5c-1.1,0-2.4,0.5-2.9,1.3L68.8,69.5z"/>
			<path class="st7" d="M56.3,70.5c-0.6,0-1.4-0.3-1.9-0.7c-0.1-0.1-0.1-0.2-0.2-0.2L50,61.9c-0.5-0.9-0.5-2.3,0-3.2l4.2-7.7
				c0.5-0.9,1.8-1.8,2.9-1.8h4h3.1c0.6,0,1.3,0.3,1.9,0.7c0.1,0.1,0.2,0.2,0.2,0.3l4.2,7.6c0.5,0.9,0.5,2.4,0,3.3l-4.2,7.7
				c-0.5,0.9-1.8,1.7-2.9,1.7h-3.1l0,0C60.3,70.5,56.3,70.5,56.3,70.5z M60.3,45.5h3.1c1.1,0,2.6-0.3,3.3-1.1l3.6-3.8
				c0.5-0.6,0.8-1.2,0.9-1.5c-3-1.4-5.4,1.9-10,1.9c-6,0-7.8-3.7-11.1-1.6c-0.2,0.2-0.4,0.1-0.4,0.1c-0.3,0.2,0.1,0.9,0.8,1.7
				l3.2,3.6c0.8,0.5,1.9,0.7,2.7,0.7C56.4,45.5,60.3,45.5,60.3,45.5z M60.3,80.9c1,0,3,0.7,4.7,0.2c1.9-0.5,3.4-1.4,3.4-1.4
				c1-0.5,1.2-1.5,0.6-2.4L66.6,74c-0.7-0.5-1.6-0.7-2.4-0.7h-3h-3.9c-1.1,0-2.5,0.5-3.1,1.4L51.6,78c-0.4,0.5-0.4,1.1-0.1,1.7
				c0.1,0,1.9,0.9,3.7,1.4C56.9,81.5,58.3,80.9,60.3,80.9z M79.4,49.4c0-0.1-0.1-0.2-0.2-0.3c-1-0.7-2.5-1.2-3.1-2.1l0,0
				c-0.3-0.2-0.6-0.4-0.8-0.7c-0.8-1.2-0.2-3.1-0.8-4.3c-0.3,0.1-0.9,0.5-1.4,1.1L70,46.9c-0.7,0.8-0.8,2.2-0.4,3.1l3.9,7.6
				c0.1,0.1,0.1,0.2,0.2,0.3c0.6,0.4,1.2,0.7,1.9,0.7h3.6c1.1,0,1.9-0.9,1.8-1.9C81,56.6,80.5,52.1,79.4,49.4z M50.5,46.1l-3.2-3.7
				c0,0,0-0.1-0.1-0.1c-0.3-0.3-0.6-0.4-0.7-0.3c0,0,0,0-0.2,0.2c-1.2,1.2-0.3,3.4-1.2,4.9c-0.8,1.3-3.5,1.7-4.1,3.1
				c-1.1,2.7-1.6,7.2-1.6,7.2c0,0.3,0,0.7,0.2,1c0.2,0.1,0.5,0.2,0.8,0.2H44c1.1,0,2.4-0.8,2.9-1.7l3.9-7.6
				C51.4,48.2,51.2,46.9,50.5,46.1z M47,62.8L47,62.8c-0.6-0.4-1.4-0.6-2.1-0.6h-3.5c-1.1,0-1.9,0.5-1.7,1.5c0,0,0.5,2.8,1.5,5
				c0,0.1,0.1,0.2,0.2,0.3c0.8,0.5,1.9,0.9,2.9,2c0.3,0.2,0.6,0.5,0.9,0.9c1.2,1.5,0.5,3.4,1.4,4.6c0.5,0.2,1.2-0.2,1.7-0.9l2.3-3.1
				c0.6-0.8,0.7-2.2,0.2-3.1L47,62.8z M80.7,62.4c-0.3-0.1-0.5-0.1-0.9-0.1h-3.5c-1.1,0-2.4,0.5-2.9,1.3l-3.9,6.6
				c-0.5,0.9-0.4,2.1,0.2,3l2.3,3.1c0.4,0.3,0.9,0.3,1.1,0.1c0,0,0,0,0.4-0.3c1.3-1.2,0.4-3.2,1.6-4.8c1.4-1.8,3.4-1.6,4-3.1
				c0.9-2.2,1.5-5.1,1.5-5.1C80.8,62.8,80.8,62.6,80.7,62.4z"/>
		</g>
		<g id="eyes_1_">
			<path class="st8" d="M64.7,17.2c0,0-1,1.9,0.6,3.7c1.6,1.8,3.5,0.7,3.5,0.7S67.4,18.7,64.7,17.2z M55.5,17.2c0,0,1,1.9-0.6,3.7
				c-1.6,1.8-3.5,0.7-3.5,0.7S52.8,18.7,55.5,17.2z"/>
			<path class="st9" d="M54.7,20.2c0.6-0.7,0.4-1.8,0.1-2.6c-1.1,0.7-1.9,1.7-2.5,2.5C53,20.5,54,21,54.7,20.2z M65.5,20.2
				c-0.6-0.7-0.4-1.8-0.1-2.6c1.1,0.7,1.9,1.7,2.5,2.5C67.2,20.5,66.2,21,65.5,20.2z"/>
		</g>
	</g>
	<rect x="37.3" y="36.2" class="st10" width="13.3" height="5.8"/>
	<g id="Layer_3">
	</g>
</g>
<g id="shield">
	<circle class="st11" cx="86.2" cy="50.9" r="17.4"/>
	<ellipse transform="matrix(0.2613 -0.9653 0.9653 0.2613 13.8316 121.2414)" class="st12" cx="86.1" cy="51.6" rx="3.4" ry="3.8"/>
</g>
<g>
	<path class="st13" d="M67.3,34.9l-7-6.9l-7-6.9c0,0-4.3,1.1-5.1,7.2c0,0,2.2-0.1,2.4-0.8c0.3-0.7-0.5-2,1-3c0,0,0.2,1.6,1.2,2.6
		c0,0,1.9,2.5,2.7,4.1c-0.9,0.9-1.3,1.9-0.9,2.3c0.4,0.4,1.4,0,2.3-0.9c1.7,0.7,4.2,2.6,4.2,2.6c1,1,2.6,1.2,2.6,1.2
		c-0.9,1.5-2.3,0.7-3,1c-0.7,0.3-0.8,2.4-0.8,2.4C66.2,39.1,67.3,34.9,67.3,34.9z"/>
	<path class="st13" d="M73.6,28.1c1.1-2.5,0.9-10,2.1-14.1l-1.2-1.2c-4.2,1.2-11.8,1-14.3,2.1c-3.1,1.3-6.4,3.4-7,6
		c-0.3,1.3,2.7,5,6,8.2c3.3,3.3,7.1,6.2,8.3,5.9C70.1,34.4,72.3,31.2,73.6,28.1z"/>
	<path class="st14" d="M60,29.6l-1.3-1.2l17.2-17l1.2-0.3c0.2-0.1,0.4,0.1,0.4,0.4l-0.3,1.2L60,29.6z"/>
	<g>
		<path class="st14" d="M60.6,27.8c-3.1-3.1-5.4-6.3-6.4-8.8c-0.5,0.6-0.8,1.3-1,1.9c-0.3,1.3,2.7,5,6,8.2c3.3,3.3,7.1,6.2,8.3,5.9
			c0.7-0.2,1.3-0.5,2-1C67,33.1,63.8,30.9,60.6,27.8z"/>
	</g>
	<ellipse transform="matrix(0.645 -0.7642 0.7642 0.645 -0.4953 55.8777)" class="st13" cx="59.9" cy="28.5" rx="0.7" ry="0.7"/>
	<ellipse transform="matrix(0.645 -0.7642 0.7642 0.645 0.5389 53.3459)" class="st13" cx="57.7" cy="26.1" rx="0.7" ry="0.7"/>
	<ellipse transform="matrix(0.645 -0.7642 0.7642 0.645 1.7185 50.8688)" class="st13" cx="55.6" cy="23.6" rx="0.7" ry="0.7"/>
	<path class="st13" d="M61.8,30.2c-0.3,0.3-0.3,0.7,0,1c0.3,0.3,0.7,0.3,1,0c0.3-0.3,0.3-0.7,0-1C62.5,29.9,62.1,29.9,61.8,30.2z"/>
	<ellipse transform="matrix(0.645 -0.7642 0.7642 0.645 -1.9799 61.2058)" class="st13" cx="64.9" cy="32.7" rx="0.7" ry="0.7"/>
</g>
</svg>
